<?xml version="1.0" encoding="UTF-8" standalone="no"?><svg xmlns="http://www.w3.org/2000/svg" xmlns:xlink="http://www.w3.org/1999/xlink" fill="#000000" height="246.1" preserveAspectRatio="xMidYMid meet" version="1" viewBox="82.5 20.9 122.8 246.1" width="122.8" zoomAndPan="magnify"><g id="change1_1"><path d="M120.713,247.589c-1.923-1.562-3.881-3.086-5.759-4.7a26.861,26.861,0,0,1-3.049-3.087c-.5-.589-1.2-.995-1.564-1.708a26.529,26.529,0,0,1-3.125-3.8c-1.513-2-3-4.033-4.338-6.152a44.016,44.016,0,0,1-4.213-8.429,55.134,55.134,0,0,1-2.336-7.937,64.929,64.929,0,0,1-1.113-7.928,51.468,51.468,0,0,1,.365-11.164,31.777,31.777,0,0,1,.813-3.833,26.328,26.328,0,0,1,2.056-4.779c.557-1.123,1.134-2.236,1.7-3.354a2.231,2.231,0,0,1,.135-.256,50.49,50.49,0,0,1,4.62-6.16,13.45,13.45,0,0,1,6.774-3.981,49.489,49.489,0,0,1,8.2-1.2c1.593-.121,3.2-.093,4.793-.16,1.551-.066,3.1-.161,4.65-.258a15.04,15.04,0,0,0,3.687-.791,6.5,6.5,0,0,0,2.952-1.778,6.559,6.559,0,0,1,.554-.463c.181-.16.421-.3.51-.506.4-.936,1.131-1.672,1.522-2.628a21.469,21.469,0,0,0,1.494-5.589,12.582,12.582,0,0,0-1.053-6.668,21.933,21.933,0,0,0-3.145-5.021,31.622,31.622,0,0,0-6.306-5.765,20.462,20.462,0,0,0-4.364-2.252,79.763,79.763,0,0,0-9.376-3.05,71.132,71.132,0,0,1-11.05-3.519,78.062,78.062,0,0,1-7.588-3.577c-1.467-.845-2.892-1.735-4.285-2.7a27.989,27.989,0,0,1-2.924-2.136,18.826,18.826,0,0,1-4.562-5.754,12.375,12.375,0,0,1-1.043-7.376,20.3,20.3,0,0,1,4.974-10,24.341,24.341,0,0,1,4.532-3.583,18.5,18.5,0,0,1,4.638-2.045,16.627,16.627,0,0,1,4.755-.558,29.189,29.189,0,0,1,8,1.332c1.662.521,3.359.929,5.04,1.389a13.583,13.583,0,0,0,3.31.414,7.388,7.388,0,0,0,3.332-.917,6.729,6.729,0,0,0,2.934-2.739,8.4,8.4,0,0,0,1.146-3.568,12.126,12.126,0,0,0-1.612-6.967,29.177,29.177,0,0,0-3.9-5.38,33.469,33.469,0,0,0-4.821-4.595,6.179,6.179,0,0,0-1.688-1.123,3.919,3.919,0,0,1-.819-.6,38.86,38.86,0,0,0-3.646-2.641,19,19,0,0,1-2.426-1.859,3.874,3.874,0,0,0-1.342-.853.926.926,0,0,1-.367-.229c-1.008-.927-2.312-1.416-3.362-2.278-1.18-.376-1.944-1.44-3.1-1.868a2.943,2.943,0,0,1-.7-.515c-.955-.751-1.893-1.523-2.866-2.251-.654-.492-1.391-.878-2.025-1.392s-1.176-1.141-1.775-1.7c-.356-.33-.74-.63-1.118-.935a20.268,20.268,0,0,1-3.67-4.081,28.238,28.238,0,0,1-4.128-8.6,20.61,20.61,0,0,1-.814-8.195,13.1,13.1,0,0,1,1.605-5.077A8.768,8.768,0,0,1,86.14,25.6a16.052,16.052,0,0,1,8.218-4.037,24.035,24.035,0,0,1,3.166-.451,28.236,28.236,0,0,1,7.663.476q2.91.639,5.751,1.541c1.107.351,2.238.623,3.352.953a47.808,47.808,0,0,1,6.678,2.783c1.746.821,3.489,1.648,5.221,2.5,1.038.511,2.04,1.094,3.078,1.606,1.383.684,2.783,1.332,4.178,1.99,1.876.884,3.789,1.7,5.616,2.676a11.827,11.827,0,0,1,2.7,1.7c1.486.75,2.642,1.977,4.038,2.833a48.2,48.2,0,0,1,4.052,3.066,5.376,5.376,0,0,1,1.352,1.307,3.959,3.959,0,0,0,.865.772c1.873,1.548,3.752,3.089,5.619,4.643a14.7,14.7,0,0,1,1.792,1.687,15.933,15.933,0,0,0,2.089,1.811,14.6,14.6,0,0,1,1.749,1.732c.5.578,1.23.953,1.6,1.666a38.16,38.16,0,0,1,4.644,5.727c1.214,1.743,2.322,3.561,3.487,5.338a34.59,34.59,0,0,1,2.538,4.727,29.757,29.757,0,0,1,1.926,5.631,13.257,13.257,0,0,1-.112,7.195,8.625,8.625,0,0,1-.648,1.608,14.167,14.167,0,0,1-1.683,2.7,10.841,10.841,0,0,0-.914,1.136,22.621,22.621,0,0,1-2.875,2.865c-.886.882-1.87,1.667-2.729,2.584-.5.527-1.047,1-1.559,1.507s-.969,1.063-1.534,1.537a19.785,19.785,0,0,0-1.838,2.066c-.321.357-.7.663-1.013,1.026-.474.546-.928,1.111-1.364,1.688-.26.345-.447.744-.705,1.09a13.316,13.316,0,0,0-2.591,7.425,13.876,13.876,0,0,0,1.946,7.348,33.557,33.557,0,0,0,4.142,5.924,13.1,13.1,0,0,0,2.313,2.4c1.863,2.139,4.214,3.718,6.367,5.524a9.8,9.8,0,0,0,2.742,1.888,34.177,34.177,0,0,0,3.029,2,11.442,11.442,0,0,0,2.212,1.37c1,.421,1.7,1.3,2.743,1.613,1.308.915,2.623,1.821,3.924,2.747.747.531,1.468,1.089,2.251,1.58a10.7,10.7,0,0,1,2.65,2.25,7.216,7.216,0,0,0,1.063.986,40.652,40.652,0,0,1,5.065,5.164,36.475,36.475,0,0,1,4.622,7,18.564,18.564,0,0,1,1.567,4.523,24.032,24.032,0,0,1,.582,3.735,46.565,46.565,0,0,1,.085,5.083,32.5,32.5,0,0,1-1.194,7.008,24.379,24.379,0,0,1-2.007,4.8,32.045,32.045,0,0,1-4.1,5.452c-1.133.9-2.113,1.977-3.331,2.776-1.494.979-2.969,1.989-4.48,2.942a29.982,29.982,0,0,0-2.938,2.109,19.166,19.166,0,0,0-1.779,1.7,6.056,6.056,0,0,0-.648.956c-.155.242-.285.5-.45.739a13.571,13.571,0,0,0-2.437,7.333,25.105,25.105,0,0,0,1.407,9,32.209,32.209,0,0,0,3.8,7.651c1.177,1.769,2.406,3.5,3.576,5.277.558.847,1.033,1.748,1.549,2.623a29.105,29.105,0,0,1,2.911,6.473,20.015,20.015,0,0,1,.76,7.186,17.919,17.919,0,0,1-.9,4.693,14.035,14.035,0,0,1-2.065,3.965,25.131,25.131,0,0,1-7.782,6.622,33.445,33.445,0,0,1-4.923,2.137,27.1,27.1,0,0,1-7.952,1.621c-1.545.082-3.1.067-4.647,0a75.237,75.237,0,0,1-14.9-2.379c-1.969-.491-3.906-1.12-5.846-1.724a49.058,49.058,0,0,1-5.284-2c-1.986-.879-3.966-1.765-5.859-2.839-1.3-.737-2.642-1.4-3.923-2.166-1.078-.644-2.094-1.391-3.142-2.084-.362-.238-.744-.445-1.108-.679a9.3,9.3,0,0,1-.832-.581q-3-2.428-6-4.868Z" fill="#fff3ef"/></g></svg>