<?xml version="1.0" encoding="UTF-8" standalone="no"?><svg xmlns="http://www.w3.org/2000/svg" xmlns:xlink="http://www.w3.org/1999/xlink" fill="#000000" height="389" preserveAspectRatio="xMidYMid meet" version="1" viewBox="-0.2 -2.5 389.2 389.0" width="389.2" zoomAndPan="magnify"><g id="change1_1"><path d="M388.8872,292.2896c0-1.2865-0.0015-2.5715-0.0015-3.858c0-2.1372-0.0015-4.2745-0.003-6.4132 c-0.003-3.7901-0.1211-7.5713-0.3013-11.3584c-0.0325-0.3944-0.0679-0.7872-0.1064-1.1816 c-0.2717-1.8108-0.5494-3.6202-0.8257-5.431c-0.0827-0.5435-0.1654-1.0886-0.2466-1.6321 c-0.4003-1.7503-0.8714-3.4843-1.3219-5.2242c-0.1846-0.7163-0.4521-1.418-0.678-2.121c-0.2216-0.6883-0.4446-1.3766-0.6661-2.0649 c-0.5377-1.3485-1.0695-2.6985-1.6085-4.0471c-0.3841-0.9616-0.8375-1.8965-1.254-2.8448c-0.489-1.1122-0.8936-2.2569-1.2924-3.4046 c-0.2703-0.7784-0.5228-1.5627-0.7621-2.3484c-3.1091-4.8654-7.2345-9.1339-12.7482-12.5223 c-8.2714-5.6865-18.1261-9.4603-28.2762-7.8873c-8.651,0.6972-17.358,0.8257-25.9573,2.0472 c-8.7469,1.5405-17.4806,3.1062-26.3812,3.3558c-7.7504,0.4214-15.5237,1.2349-23.2871,1.2749 c-0.7735-0.0458-1.5473-0.0878-2.3215-0.125c-2.767-0.1604-5.5355-0.2993-8.3047-0.4207c-0.1735-0.0204-0.3471-0.0355-0.5206-0.0573 c-1.3008-0.2151-2.5974-0.465-3.8902-0.7392c15.9198-3.2379,31.4817-8.4313,46.2676-14.9932 c10.5735-4.2692,21.2847-9.3404,30.8167-15.8972c0.3156-0.1306,0.6267-0.2771,0.9307-0.443 c11.394-4.9614,18.7983-14.9192,25.6393-24.8662c10.8758-14.2501,17.6229-31.1012,21.1732-48.5925 c2.8267-11.9374,3.554-24.1672,3.1948-36.3997c0.0652-15.3646-0.0599-30.9084-3.2534-45.9991 c-4.55-19.872-20.514-40.5536-42.8872-30.7822c-12.9131,6.6016-19.7386,27.9252-26.4025,40.5272 c-6.5283,12.9871-11.4663,26.6561-16.339,40.3295c-7.3094,15.131-12.8146,31.0787-20.527,46.0342 c-8.7455,17.1453-19.482,33.3144-32.5286,47.4968c-8.2391,9.0404-17.0399,18.7641-28.3004,23.7138 c12.053-14.2249,21.7503-30.083,30.5625-46.4589c12.757-18.0644,22.5489-38.1601,30.6831-58.8197 c5.6427-10.0293,10.9331-20.2361,15.3062-30.8968c5.6716-15.4667,6.4175-38.0941-3.7093-52.1617 c-0.6812-1.4493-1.483-2.8399-2.4007-4.1495c-2.3545-4.252-5.4883-8.027-9.4169-10.8861C258.8577-2.427,248.7494,1.3022,241.0286,5 c-6.8514,3.4936-13.4415,7.9369-18.2224,14.0297c-2.2621,2.2357-4.3373,4.702-6.1775,7.3817 c-22.1672,28.61-20.9235,66.4707-27.356,100.4615c-3.7692,19.3985-12.2843,37.3427-23.2096,53.6861 c0.19-3.9689,0.9042-7.9243,1.8089-11.8078c0.2798-1.6394,0.5694-3.2778,0.8651-4.9155 c5.6203-20.389,10.3942-40.9964,12.6485-62.0627c1.3736-8.1178,1.5952-16.3758,0.6366-24.5556 c-0.8108-7.4449-1.7025-15.1731-3.3335-22.6854c-1.2958-18.3601-12.3323-35.5775-27.7524-45.4079 c-9.1835-5.4628-20.1108-7.3286-30.607-8.3926c-4.8121-0.0057-10.0559-1.0049-14.4794,1.3589 c-7.7061,4.6033-8.8521,14.3184-8.5428,22.4984c-0.0331,8.8249,0.1287,18.5377,0.588,28.7579 c-0.1701,4.7612-0.1864,9.5326-0.0546,14.3079c-0.0742,2.2383-0.0921,4.4739-0.0672,6.707 c0.0026,0.3662,0.0048,0.7324,0.0123,1.0987c0.0899,4.9149,0.4175,9.8142,0.9585,14.6916 c1.299,18.0396,4.0044,37.2862,7.9069,54.9003c2.4455,12.7569,5.8379,25.4085,11.2618,37.2404 c3.132,6.2691,6.6265,13.8656,11.1223,20.3328c-16.4203-9.5502-26.8016-28.5041-31.5504-46.4828 c-7.2064-28.4343-13.7024-57.0857-19.1866-85.901c-3.8846-19.1423-6.1444-43.401-20.6252-57.6824 C52.2402,7.0733,44.7191,4.7367,37.1183,4.911c-19.9398-2.9939-20.7005,32.118-21.0358,45.7229 c-1.2059,13.817,2.474,27.0437,6.8384,39.9895c0.6723,4.0653,1.5192,8.0961,2.5639,12.0737 c3.8186,20.0655,10.494,39.5571,20.19,57.6705c6.2847,12.9328,13.2179,25.5998,23.0859,36.196 c9.3126,10.6553,22.148,17.1011,33.3321,25.4921c6.0394,4.5823,12.1309,9.1721,18.5303,13.2579 c-13.7153,0.9075-21.8609-1.8001-34.8574-8.067c-2.7648-1.1262-5.457-2.4187-8.0567-3.8645 c-5.983-4.1436-11.5573-8.9274-16.7603-14.0216c-1.9041-1.8061-3.6859-3.7002-5.3712-5.6632 c-2.1733-3.1171-4.0619-6.4547-5.609-10.0043c-6.8313-15.1765-12.379-30.9098-19.0906-46.1527 c-3.019-7.3984-5.7737-14.8959-8.6184-22.3623c-1.9763-6.0587-5.1401-12.3287-12.6138-9.5224 c-9.4574,7.5107-9.0645,21.866-9.58,32.951c0.0484,8.0882-0.3016,16.208,0.2488,24.2828 c-0.1812,5.6624-0.1597,11.3306,0.0848,16.9901c1.1386,18.3751,6.4706,36.5616,16.5991,52.0282 c11.3129,19.3251,35.8888,23.955,56.5905,24.5825c8.5412,0.2941,17.0016-0.8157,25.2508-2.8627 c-0.4485,0.3835-0.9121,0.7525-1.4009,1.0971c-9.9005,6.5137-22.247,7.8268-33.8239,8.4427 c-5.821,0.0414-11.6434,0.037-17.4629,0.031c-3.2421-0.003-6.4842-0.0059-9.7248,0c-12.1663-1.4933-19.1408,6.2168-21.9427,17.3167 c-4.3838,14.116-5.9214,28.8124-5.5359,43.5531c-0.8227,7.527,2.4341,14.6167,8.9139,18.6371 c7.4412,5.8269,16.9622,7.2242,26.167,6.8844c9.1753,0.9069,17.7672-2.9334,24.8806-8.4722 c27.2689-18.8853,37.7838-52.015,57.2481-77.5927c0.003,6.394,0.3766,12.9668-1.8876,19.0699 c-4.7088,12.1279-12.6773,22.634-18.3063,34.3276c-4.9805,9.4678-8.6406,19.8793-8.4353,30.6971 c-2.1402,20.5248,23.7476,21.38,38.385,20.8955c2.056-0.065,4.4473-0.0428,7.0351-0.0207 c15.0701,0.1286,36.7927,0.2555,37.9419-16.6269c0.9896-13.0688-0.5583-26.0341-4.5182-38.5224 c-3.4592-13.1943-6.8209-26.455-11.9019-39.1339c0.1093,0.1846,0.2186,0.3707,0.3264,0.5568 c4.5241,8.2123,8.069,16.9105,12.4248,25.2085c4.0323,7.3733,8.3186,14.6107,12.4114,21.9516 c6.1474,9.9758,9.2403,21.8098,17.4659,30.4208c5.6792,6.3365,13.6196,9.679,21.0919,13.3716 c6.586,3.5848,13.9491,5.1622,21.2131,6.7279c10.4455,2.2451,21.1023,3.6098,31.7827,3.926c1.3766,0.0826,2.7458,0.124,4.1076,0.124 c12.4484-0.0014,24.2557-3.4385,35.0808-9.8414c30.6602-17.3521-14.24-37.9094-29.6705-45.4437 c-7.4664-3.6689-15.017-7.1725-22.408-10.992c-12.9166-7.8032-25.2646-16.5043-38.0837-24.467 c-7.0085-4.4828-14.178-8.7145-21.1909-13.1898c-6.0647-3.5286-11.4942-8.007-15.3906-13.8014 c14.8397,6.8638,29.0487,14.9785,43.7008,22.2322c19.2427,9.5623,38.9522,18.2428,57.6307,28.8951 c15.5694,9.6908,30.5715,20.2811,46.5529,29.3234c3.4252,1.9822,6.945,3.796,10.4973,5.5389 c0.8773,0.1462,1.7695,0.2452,2.6527,0.3604c0.7962,0.0059,1.5928,0.0114,2.3892,0.0112c0.0002,0,0.0003,0,0.0005,0 c0.01,0,0.02-0.0003,0.03-0.0003c0.7861-0.0003,1.5719-0.006,2.3571-0.0228c1.1107-0.2762,2.2082-0.6026,3.2938-0.966 c1.6251-0.5918,3.2175-1.2702,4.7746-2.0249c0.0001,0.0003,0.0002,0.0006,0.0002,0.0009c0.0264-0.0128,0.0528-0.0257,0.0792-0.0385 c0.0214-0.0104,0.0432-0.0201,0.0645-0.0305c1.7015-0.8788,3.3588-1.8404,4.9584-2.8935c0.3235-0.2245,0.6425-0.4535,0.9586-0.6854 c0.6942-0.6381,1.3677-1.2968,2.0058-1.9925c0.4785-0.5672,0.935-1.1476,1.3663-1.7488c0.5273-0.8316,0.9955-1.6971,1.446-2.5745 c0.7621-1.5789,1.3839-3.2007,2.0147-4.8343c0.4593-1.3825,0.9172-2.762,1.3573-4.1505c0.5849-1.8434,1.1151-3.6867,1.6262-5.5522 c0.2016-0.738,0.3916-1.4783,0.5772-2.2197c0.0409-0.1634,0.0807-0.327,0.1211-0.4905c0.0689-0.2797,0.1398-0.5588,0.2071-0.8391 c-0.0004-0.0061-0.001-0.0122-0.0013-0.0183c0.4772-1.9906,0.9182-3.9896,1.3542-5.9896c0.5539-2.7739,1.1063-5.5462,1.6396-8.3246 c0.675-3.5123,1.2672-7.0484,1.5449-10.6154C388.9565,296.8373,388.8872,294.5686,388.8872,292.2896z M163.4067,259.1603 c-2.8761,2.122-5.8797,4.0579-9.048,5.7173c-1.5044,0.9167-3.2521,0.6598-4.9308,0.6545c-2.5177,0.1853-4.929-0.2803-6.9124-1.9219 c-1.3905-0.9109-3.5094-2.3542-4.5731-3.9411c-1.8216-2.4201-1.8721-5.3543-1.7189-8.2471c0.0194-2.1879-0.0493-4.3908,0.324-6.5556 c1.0547-3.9171,3.9968-6.9925,5.5866-10.6947c2.6131-4.6616,4.8008-9.5616,7.7519-14.0294 c2.6807-3.6516,6.1413-6.5274,9.9837-8.8377c6.6157-2.221,13.6479-2.0496,20.6003-1.9592c2.0829,1.0985,4.0244,2.4129,5.6231,4.1962 c0.3715,7.3687-2.3428,14.4714-5.024,21.2197C177.2256,244.0625,171.8128,253.3128,163.4067,259.1603z" fill="#ff86c8"/></g></svg>