<?xml version="1.0" encoding="UTF-8" standalone="no"?><svg xmlns="http://www.w3.org/2000/svg" xmlns:xlink="http://www.w3.org/1999/xlink" fill="#000000" height="449.9" preserveAspectRatio="xMidYMid meet" version="1" viewBox="-0.1 0.2 473.2 449.9" width="473.2" zoomAndPan="magnify"><g id="change1_1"><path d="M473.1,283c-0.9-0.3-1.7-0.6-1.7-0.6c0,0,0,0,0,0c-0.9-0.3-1.6-0.6-2-0.8c-4.9-2.5-7.5-3.9-7.4-3.9 c0,0,2.2,1.1,6.8,3.5c0.2,0.1,1,0.4,1.8,0.7C471.6,282.3,472.5,282.7,473.1,283z M377.4,206.7l-3-0.8l4.6,1.4l3.5,1L377.4,206.7 C377.4,206.7,377.4,206.7,377.4,206.7C377.4,206.7,377.4,206.7,377.4,206.7z M101,78.1c1.1,0.9,2.1,1.7,2.9,2.4 C103,79.8,102.2,79.1,101,78.1z M243.7,334.8c3.5-7.6,4.9-10.7,4.9-10.7c0,0-1.3,2.6-3.2,6.7L243.7,334.8z M103.9,80.5 c0.5,0.4,0.9,0.8,1.5,1.2C104.9,81.4,104.4,81,103.9,80.5z M233.5,356.5l-2.5,5.4l-1.4,3.1L233.5,356.5z M196.1,436.6l-0.8,1.3l0,0 C195.5,437.6,195.8,437.1,196.1,436.6z M328.2,242.4l0.7,1.7l4.5,10.3L328.2,242.4l1.1,1.2L328.2,242.4z M198.3,212.8l-8.8-4.6 l18.7,9.9L198.3,212.8z M163.4,28.6c-0.1-0.2-0.1-0.3-0.2-0.4C163.3,28.4,163.4,28.5,163.4,28.6z M389.9,210.4 c0.2,0,0.3,0.1,0.5,0.1C390.3,210.5,390.1,210.5,389.9,210.4z M186,355.8c3.3-5.5,9.8-16.2,16.4-27C197.3,337,189.1,350.5,186,355.8 z M350.2,219.8c-1.7-0.9-2.8-1.4-5-2.6C347.3,218.3,349,219.2,350.2,219.8z M473.1,283L473.1,283L473.1,283 c-1.7-0.8-3.4-1.6-5.2-2.4c-3.2-1.7-6.5-3.3-9.7-5c-0.9-0.4-2-1-2.4-1.2c-0.2-0.1-1.2-0.6-1.6-0.8c-4.8-2.5-9.3-4.8-13.3-6.9 c-0.2-0.2-4.2-2.2-9.5-5c2.5,1.3,5.6,3,9.5,5l-2.1-1c-4.4-2.2-5.8-3.2-7.5-4.1c-6.3-3.2-14.9-7.7-24.8-12.8 c-7.6-3.9-9.5-4.8-28.4-14.6l9.7,4.9c-5.4-2.8-8.9-4.6-12.2-6.3c-1.7-0.9-4.5-2.3-7.8-4c-5.1-2.6-9.7-5-17.8-9.1 c0.9,0.5,1.4,0.7,1.7,0.9l-11.5-5.9l14.6,13.2c4.1,3.6,8.1,7.2,14.9,13.3l-3-2.5c0.7,0.7,1.6,1.5,2.3,2.1l-0.6-0.5 c0.3,0.3,1.2,1.1,1.6,1.5c9.9,8.9,23,20.7,33.6,30.2c5.3,4.8,10,9,13.4,12.1c2.5,2.3,4.4,4,5.1,4.7c-0.1-0.1-0.1-0.1-0.1-0.1 c0.1,0,3.7,3.2,9.2,8.2c7.9,7.2,19.2,17.4,30.2,27.3c0.5,0.7,1,1.5,1.5,2.2c-0.9-0.4-1.8-0.8-2.6-1.2c-6.8-5-12.9-9.5-17.4-12.8 c3.3,2.4,5.3,3.9,6.5,4.8c1.8,1.3,2.5,1.8,3,2.1c-10-7.4-20.1-14.8-30.2-22.2c-9.7-7.1-19.3-14.3-29-21.4 c-18.5-13.6-37-27.3-55.4-40.9l-0.2-0.2c0.1,0.2,0.4,0.6,0.7,1c0.6,0.7,1,1.2,1.6,1.9c2.8,3.5,8.1,10.2,13.6,17.1 c7.1,8.6,13.1,15.8,24.1,29.7l-6.3-7.7c32.5,40.6,45.5,56.9,71.8,89.8l-1.9-2.2c1.2,1.5,2.4,2.9,3.8,4.7c1.3,1.9,2.6,3.6,3.8,5.4 c-1.4-1.3-2.8-2.6-4.1-3.7c-5.4-5.9-10.7-11.7-15.5-17c-10.9-12.3-33.1-36.6-57.5-63.2l0.3,0.4c-3.3-3.6-4-4.4-4-4.4 c-13.5-14.8-27.5-30.1-40.4-44.3c2,4.8,4,9.4,5.9,13.8c0.6,1.3,3.5,8,7,15.9l0.8,1.5c5.5,12.7,11.8,27.2,16.9,39 c9.1,21,17.4,40.4,25.3,58.7c0.7,1.6,1.2,2.6,1.2,2.6c0,0-0.4-0.9-1.3-3.1c6,13.9,12.7,29.4,19.7,45.6c0.2,1,0.5,2,0.7,3.1 c-0.6-0.8-1.3-1.6-2-2.5l-0.1-0.1l-0.9-1.6c-0.4-0.7-0.3-0.6-0.6-1.1c-5.4-9.8-10.7-19.4-16.1-29.1c-2.8-5-5.2-9.3-6.4-11.5 c-9-16.3-12.8-23.3-17.1-31.2c-8.7-15.9-16.4-29.9-21.8-39.7c-4-7.1-7.5-13.6-11.3-20.3c0.5,0.9,0.6,1.1,1.2,2.2l4.2,7.6 c2.8,5.1,6.2,11.3,6.2,11.3c0,0-0.6-1-2-3.5l-1.5-2.9c-5.5-9.8-19.6-35.2-19.6-35.2c0,0,0.2,0.3,0.6,1.1c-1.1-2.1-2.1-3.8-2.8-5.1 c-0.5-0.8-0.8-1.5-1-1.9c-0.1-0.3-0.2-0.4-0.2-0.4c0,0,0,0.1,0.1,0.2c0.1,0.2,0.3,0.5,0.5,0.9c0.5,0.9,1.1,1.9,1.7,3.1 c1.3,2.4,2.9,5.3,4.7,8.4c-2.9-5.2-5.4-9.8-7.8-14c0.5,2,1,3.8,1.4,5.6c7.9,30.4,15.7,60.8,25.2,97.5l-0.2-0.8 c2.6,10.1,6.4,25,9.6,37.9c-0.1-0.7-1.8-7.6-3-12.3c3.1,12.3,6.1,24,8.9,34.9c0,0.9,0,1.7,0,2.4c-0.5-0.6-0.9-1.2-1.3-1.6 c-4.6-12.3-8.5-23-11.8-31.7l5.5,15c-3.3-9-6-16.3-8.8-23.8l3.3,8.5c-1.6-4.4-3.1-8.4-4.2-11.4c-0.6-1.5-1-2.7-1.3-3.5 c-0.3-0.8-0.5-1.2-0.5-1.2c0,0,0,0,0,0c-1-2.7-1.2-3.3-1.1-3.3c0,0,0.1,0.1,0.1,0.2c0.1,0.1,0.1,0.2,0.1,0.2c0,0-0.2-0.7-1.3-3.8 c-3.3-8.9-6.7-18.1-10.3-27.8c-0.1-0.3-0.8-2-0.8-2c0,0,0.8,2.5,4.7,12.8c-2.2-6-4.9-13.4-8.2-22.2l1.3,3.6 c-13.2-35.3-5.8-16.3-19.3-52.9c0.2,0.7,0.3,1,0.3,1c0,0-0.3-0.7-0.8-1.9c-0.2-0.5-0.4-1-0.6-1.5c0-0.1-0.1-0.2-0.2-0.4 c-0.1-0.2-0.2-0.5-0.3-0.7c0,0.4,0.1,0.7,0.1,1c-0.1-0.5-0.1-0.9-0.1-1.1c0.1,0.2,0.1,0.3,0.1,0.3c0,0-0.1-0.3-0.3-1.1 c0,0.3,0,0.8,0.1,1.5c0.1,0.7,0.1,1.5,0.2,2.4c0.1,1.2,0.3,2.5,0.4,3.9c0.6,5.9,1.1,10.3,1.5,14.1c0.2,1.6,0.4,3.2,0.5,4.9l-0.2-1.4 c1,9.3,1.4,13.6,2.3,22.4l-1.1-10.5c3,27.9,6.7,62.7,10.5,97.4c0.2,0.9,0-1,0.8,6.1c0.8,7.8,1.5,14.4,2.1,20c-0.1,1.1-0.2,2-0.3,2.9 c-0.4-0.9-0.8-1.6-1.1-2.1c-1.9-9.9-3.9-20.3-7.5-38.8c0.7,3.6,1.2,5.8,1.2,5.8c0,0-0.4-2.3-1.5-7.9c-1.8-9-3.8-19.6-6-30.8 c-0.5-2.4-0.9-4.8-1.4-7.2c-4.3-22.3-8.7-44.9-11.1-57l2.9,14.5c-1.4-7.3-2.6-13.3-3.6-18.4c-0.7-3.8-1.3-6.8-1.8-9.5 c-0.8,4.6-1.4,8.2-2,12.1c-0.4,2.6-0.8,5-1.2,7.7l0.9-5.6c-1.4,8.3-3,18.2-5.9,36.4l4.4-26.2c-2.7,16.5-5,30.8-4.9,30.8 c0,0,0.1-0.2,0.2-0.7c-2.8,17.2-1.6,9-3.7,21.4c-0.6,3.5-1.1,6.9-1.8,10.8c-0.2,1.1-0.3,1.8-0.5,3l0-0.3c-1.1,6.9-2.2,13.2-2.5,14.8 l-3.3,21.5c-2.7,16.7-4.6,28.1-6.2,38c-0.2,0.8-0.5,1.6-0.7,2.5c0.1-0.4,0.3-1.1,0.6-1.8c-0.4,1.2-0.7,2.4-1.1,3.6 c-0.1-1.3-0.2-2.6-0.3-3.8c0.6-7.9,1.1-15.4,1.6-22.8c-0.1,2-0.2,3-0.5,6.2c0.8-12.1,1.6-22.7,1.7-23.8c0.1-1.2,0.2-2.4,0.2-3.5 c0.2-2.8,0.4-6.3,0.8-10.7c0.5-7.6,1.1-15,1.6-22.4l0.8-12.2l-0.1,2l-0.6,9.2c0.2-2.8,0.4-5.5,0.6-8.2c0-0.3,0-0.7,0.1-0.9 c0-0.1,0-0.2,0-0.3c1.7-25.2,3.4-49.6,5.1-74.2c0.1-1.1,0.2-2.4,0.4-4.2c-1,2.1-2.2,4.7-3.5,7.5c-1.7,3.6-3.6,7.7-5.5,11.9 c-3.9,8.4-8.2,17.7-12.4,26.7c-6.4,13.8-12.2,26.4-16.5,35.8c-10.6,22.9-23,49.7-33.2,71.5c-0.8,1.4-1.4,2.5-2,3.6l-0.5,0.9 c0.5-1.8,0.8-3.3,1.1-4.5c1.7-4.7,2.9-8.2,3.9-11.2c2.9-8.3,5.7-16.3,7.5-21.6c-1.6,4.6-3.4,10-5.4,15.6c0.9-2.6,1.8-5.1,3-8.2 c2.9-8.3,5.4-15.8,7.1-20.6l1.3-3.4c0.1-0.2,0.1-0.4,0.2-0.6c1.3-3.9,1.8-5.3,1.8-5.3c0,0-1.4,3.9-2.7,7.8c-1.4,3.9-2.7,7.8-2.7,7.8 c0,0,0.2-0.7,0.8-2.3c1.5-5.3,15.6-44.8,24.1-69.9l-2.1,6.1c2.2-6.2,4.6-13.3,7.3-21.2c2.4-6.9,5.1-14.5,7.9-22.5 c-5.5,7.5-11.3,15.6-17.4,24l0.1-0.1c-2.7,3.6-6.1,8.3-9.6,13c-3.3,4.6-6.5,9-9.4,12.8c-5.7,7.8-11.5,15.8-17.6,24.1 c-0.5,0.7-0.5,0.8-1.4,1.9c-0.3,0.4-0.3,0.4-0.5,0.7c-6.5,9-13,17.8-18.8,25.8c4.1-5.5,6.6-8.9,6.6-8.9c0,0-0.5,0.7-1.5,2.2 c-7.8,10.7-0.1-0.2-12,16.2c-2.6,3.7-5,7-7.5,10.5c-2.9,4-6.1,8.5-8.8,12.2c-3.5,4.8-6.6,9.2-7.9,11.2c-0.1,0.1-0.1,0.2-0.2,0.2 l0.1-0.1l18.7-25.8c-2.2,3-4.6,6.5-7.3,10.1c-3.8,5.3-7.9,10.8-11.9,16.4c-1,1-2,2.2-3.1,3.4c0.8-1.6,1.5-3.1,2.2-4.5 c0.2-0.4,0.4-0.7,0.7-1.1l-0.9,1.5l-0.5,0.8c0.1-0.1,0.1-0.3,0.2-0.3c12.7-20.8,19-31.1,25.8-42.2c5-8.3,9.6-15.7,13.5-22.1 l-3.3,5.5c1.4-2.3,3-4.8,4.5-7.4c2.4-3.9,4.2-7,7.3-12l-0.2,0.4c8.9-14.7,18-29.7,23.1-38l1.5-2.7c3.8-6.3,10.5-17.2,19.3-31.4 c-1.8,1.3-5.5,4.1-9.1,6.9c-1.2,0.9-2.2,1.6-3.6,2.7l0.5-0.4c-2.9,2.2-5.6,4.2-8.4,6.4c-3,2.3-6.1,4.6-9.2,7 c8.1-6.1,19.3-14.5,29.5-22.3c-4.3,7.1-8.3,13.6-11.7,19c2.8-4.5,7-11.5,11.4-18.7c-5.5,4.2-11.1,8.4-15.9,12 c-5.4,4.1-9.7,7.3-11.8,8.9l16.5-12.5c-8.4,6.4-18.5,13.9-29.9,22.5c-10.9,8.3-21.9,16.7-32.2,24.6c-0.3,0.3-0.3,0.3-0.8,0.7 l0.2-0.2l-0.4,0.3c-4.3,3.4-14.6,11.2-26.6,20.4l0.5-0.3c-4.1,3.1-6.3,4.7-7.7,5.8c-11.6,8.9-23.9,18.2-34,25.9 c-1.4,0.9-2.7,1.6-3.7,2.2c1-1.2,1.7-2.1,2-2.6c1.2-1.1,2.3-2.1,3.3-3c20.7-18.9,41.3-37.7,62.7-57.2c19.2-17.6,39.1-35.7,60.5-55.3 c-1.7,0.7-3.5,1.5-5.2,2.2c1.2-0.5,2.2-1,3-1.3c0.4-0.2,0.7-0.3,1.1-0.5c0.1-0.1,0.2-0.1,0.3-0.1c0.2-0.1,0.3-0.2,0.4-0.2 c0.1-0.1,0.2-0.1,0.2-0.1c0,0,0,0,0,0c0,0-0.2,0.1-0.5,0.2c-0.7,0.3-1.7,0.7-2.8,1.2c-5.3,2.3-13.4,5.7-15.2,6.4 c-4.9,2.1-10.2,4.4-16.8,7.2c3.5-1.4,7.9-3.3,8-3.3c0.1,0-2.3,1.1-9.6,4.2c3.4-1.5,4.6-2,4.6-2c-0.1,0-3.9,1.6-7.7,3.2 c-3.8,1.6-7.7,3.2-7.7,3.2c0,0,1.2-0.5,4.4-1.9l-0.9,0.4l-37.1,16c-1.8,0.8-2.5,1.1-2.5,1.1c0.1,0,3.7-1.5,7.3-3.1 c3.6-1.5,7.2-3.1,7.3-3.1c0,0,0,0,0,0c-30.4,13-12.7,5.6-32.8,14.2c0.5-0.2,0.7-0.3,0.7-0.3c-0.2,0-13.4,5.6-28.7,12.2l24.4-10.6 c-16.7,7.1-25.9,11-33.6,14.4c-3.8,1.7-7.3,3.2-11.1,4.8c-5.5,2.4-11.6,5-19.2,8.2c-0.4-0.1-0.9-0.1-1.3-0.2 c0.2-0.4,0.4-0.8,0.7-1.3c4-2.3,8.3-4.7,12.9-7.3l-13.2,7.4c-0.2,0.4-0.4,0.7-0.5,1c0-0.2,0.1-0.5,0.2-0.9c12.7-7.2,32-18.2,51.1-29 c16.8-9.5,33.3-18.9,43.6-24.6c1.9-1.1,3.6-2.1,5.3-3c1.3-0.8,2.4-1.4,2.3-1.4c0,0-1.4,0.8-5.3,2.9c19.9-11.3,41.8-23.7,63.1-35.8 c-16.8,1.6-33.3,3.1-48.6,4.6c-16.3,1.6-31.3,3-44.2,4.3l4.4-0.3c-9.5,0.9-17,1.5-27.8,2.6c0.8-0.1,0.9-0.1,1.9-0.2 c-1,0.1-2.3,0.2-3.5,0.3c-0.8,0.1-1.5,0.1-2.3,0.2l-0.7,0.1c-5.1,0.5-23.8,2.2-37.7,3.5c-0.6,0.1-1.2,0.1-1.9,0.2l9.4-0.8 c-12.3,1.2-23.7,2.3-34.3,3.3c-0.9-0.2-1.7-0.3-2.6-0.5c0.9-0.4,1.8-0.8,2.9-1.1c13.3-2.2,25.7-4.2,38-6.2c0.5-0.1,0.4-0.1,1.5-0.3 c0,0,0,0,0,0c0.1,0,0.5-0.1,1.3-0.2c0.9-0.1,2.1-0.3,3.7-0.6c3.1-0.5,7.4-1.2,12-2l-9,1.4c7.9-1.3,15.6-2.6,25.1-4.2L75.3,260 c10.2-1.7,23.7-3.8,39.2-6.4c10.6-1.9,42-7.2,59.9-10.2l-0.8,0.1c12-2,23.2-3.8,33.6-5.6c-43.9-8-80.3-14.6-125.3-22.8 c-8-1.4-18.5-3.3-30.5-5.4c-14.7-2.6-31.3-5.6-48.9-8.8c-0.9-0.4-1.7-0.8-2.6-1.1c0.9-0.1,1.8-0.3,2.7-0.4 c34.3,3.5,70.3,7.2,99.9,10.2c-2.2-0.2-3.3-0.3-3.4-0.3c-0.5,0,7.5,0.9,15.5,1.8c13,1.3,35.2,3.8,36.5,3.8c0.1,0,0.1,0-0.1,0l-5-0.5 c10.6,0.9,39.4,3.9,61.9,6.2l3.6,0.6c1.2,0.1,2.4,0.2,3.6,0.3c-5.8-3-12-6.2-18.5-9.6c-7.3-3.8-14.8-7.7-22.5-11.7 c-15.3-8-31.1-16.3-46.1-24.2c-30-15.8-56.8-29.9-70.7-37c-11.4-6-25-13.2-37-19.5c-0.8-0.7-1.6-1.3-2.5-2c0.1,0,0.3,0.1,0.4,0.1 c-0.1-0.1-0.3-0.1-0.3-0.1c0.8,0,1.5,0.1,1.9,0.1c0,0,0,0,0,0c33.9,14.1,54.2,22.6,98.3,41l-9.2-3.9c25.4,10.6,32,13.8,55.4,23.5 l7.1,2.7c17.8,7.4,35.6,14.8,53.4,22.2c-9.2-8.7-18.3-17.5-27.4-26.2c-10-9.6-19.9-19.1-29.7-28.5c0.5,0.6,1.5,1.6,7.2,7 c-15.4-14.8-58.1-55.3-57.7-55.3c0,0,0,0,0.1,0.1c-0.7-0.6-2.1-2-4.2-3.9c-2.8-2.7-6.7-6.4-11.1-10.6c-10.4-10-23.6-22.7-34.9-33.4 c-0.9-1.2-1.9-2.4-2.9-3.5l0,0c0.2,0.3,0.4,0.5,0.5,0.7c-0.2-0.3-0.4-0.5-0.5-0.7c1.3,0.7,2.7,1.7,4,2.7c9.2,7.6,15.2,12.6,35,28.9 c2.4,2,3.7,3,3.7,3c0,0-0.6-0.5-1.8-1.5c13,10.6,12.4,10.4,32.7,26.9l-8.4-7c19.2,15.8,17.7,14.5,28.2,23.3 c12,9.9,36.4,29.9,39.4,32.1c1.4,1.2,5.4,4.6,10.6,8.8c0.4,0.3,0.6,0.5,1.1,0.9c0,0,0,0,0,0c0,0,0.6,0.5,0.9,0.8 c3.6,3,7.5,6.2,11.7,9.6c0.2,0.2,0.3,0.3,0.3,0.3c0.1,0-3.2-2.7-4.9-4.2c8.1,6.7,15.1,12.4,21.3,17.5c-4.6-10-8.5-18.6-12.3-26.8 c-4.1-8.8-8-17.2-12.4-26.7c-0.3-0.5-1.1-2.2-2.1-4.3c13.8,29.8,22.9,49.5,23.9,51.8c0,0,0,0,0,0c-0.1,0-1.5-3.1-3-6.1 c-1.5-3.1-2.9-6.1-2.9-6.1c0,0,0.8,2,3.3,7.5c-8.9-19.5-24-52.8-35-76.4l-1.5-3l1.1,2.4l-6.9-15c-3.5-7.5-5.7-12.3-9-19.5 c-1.4-2.7-12.9-27.7-18.5-39.8c0,0,0,0,0,0c0,0,0-0.1-0.1-0.4c-0.2-0.4-0.4-0.9-0.7-1.5c-0.8-1.8-1.9-4.2-2.6-5.8 c-0.5-1.1-0.8-1.8-0.8-1.8c0,0,0.1,0.2,0.2,0.5c0.4,0.9,1.6,3.4,4,8.5c0-0.1,0-0.1,0-0.1c0,0,1.8,4,5,10.8l2.4,5.1l-0.4-0.8 c3.6,7.9,8.4,18.2,13.8,30c-4.3-9.6-8.9-19.6-15.1-32.8l0,0l0,0c-2.9-6.5-6.2-13.8-8-17.8c-1.2-2.6-2.6-5.6-4.4-9.3 c-1.1-2.6-2.2-5-3.1-7.3c1.2,1.9,2.3,3.6,3.2,4.9c4.2,7.5,8.2,14.6,11.4,20.3c2.4,4.3,4.2,7.4,4.9,8.5 c19.7,35.5,46.5,83.6,58.7,106.1c5.6,10.1,6.5,11.5,8.6,15.3l-8.8-15.9c4.5,8.1,10.9,19.6,16.8,30.3c-1.5-7.5-3-14.7-4.1-20.3 c-1.3-6.4-2.2-11-2.5-12.6c-1.6-7.9-2.1-10.2-2.2-10.2c0,0,0.2,1,0.4,2.1s0.4,2.1,0.4,2.1c0,0-0.7-3.5-3.5-17.1l1,5.2 c-4.3-20.5-8-39-11.6-56.7c-3.9-19.2-7.6-37.5-11.4-56.4c-0.2-1.8-0.5-3.7-0.8-5.7c0.7,2,1.4,4,2.1,6.1c3.9,13.2,7.9,26.8,12.1,41.3 c3.9,13.2,8.1,27.3,12.7,42.6l-3-9.9c7.7,26.1,15.6,52.7,23.5,79.4c-2.1-53.8-4.3-108.2-6.4-161.2c0.1-1.4,0.1-2.8,0.2-4.2 c0.3,1.3,0.7,2.7,1,4c2.5,14.7,5,29.3,7.4,43.8c4.7,27.5,5.1,30.5,7.8,47.3l1.2,5.9l4.7,28.7c1.4,8.6,2.8,16.7,4.1,24.5 c2.3-14.1,4.5-27.6,7-42.5c2.5-15.4,5.3-32.1,8.8-52.1l-1,6.7c3-17.8,9.4-55.7,9.3-55.7c0,0,0,0.1,0,0.2c0.2-1.4,0.6-3.7,1.3-7.1 c0.2-1,0.5-2.2,0.9-3.7c0,0.5,0.1,1.1,0.1,1.7l0.1,0.1l0.1,1.5l-0.6,45.8c-0.3,35.7,0.4-5.6-0.2,46.5c-0.2,17.6-0.7,48.9-0.8,48.9 c0,0,0-0.3,0-1c0.1-7.8,0.2-20,0.1-20.5l-0.2,17.7l0,0v0l0,0l0.1-0.8l-0.1,4.3l0-3.5c0,0.5-0.1,1.2-0.1,1.9l0,2.6l1.5-1.6l2.1-2.3 l-0.4,0.5l4.9-5.2l7.1-7.6c-0.4,0.3-8.8,9.2-14.1,14.9c-0.4,0.5-0.7,0.7-0.7,0.7c-0.1,0,21.2-23,33.2-35.9 c35.6-38.1,7.6-7.7,32-33.7l31.4-33.8l0.4-0.3c5.1-5.3,7.9-8.5,9.2-9.9c-0.1,0.1-0.1,0.1-0.1,0.1c0,0,1.6-1.6,4.1-4.3 c3.2-3.5,7.9-8.5,13.1-14c2.1-2.2,4.4-4.5,6.6-6.8c-2,2.5-3.9,5-5.7,7.4c-2.9,3.6-5.5,6.9-7.8,9.7l5.6-6.9 c-8.7,10.9-16.4,20.6-23.6,29.6c-6.8,8.4-13,16.2-19.1,23.7c-12.1,15-23.3,28.8-36.2,44.9l-18.1,22.8l-3.9,4.6 c-3.7,4.6-6.2,7.9-8.8,11.2c3.3-1.2,6.6-2.4,11-4c4.8-1.7,10.7-3.8,19-6.7c38-13.4,77.1-27.1,116.6-41c2.5-0.8,5-1.6,7.5-2.4 c-2.3,1.1-4.7,2.3-7,3.4c-45.8,20.6-91.8,41.4-136.6,61.6c4,0.3,8,0.7,12,1l-10.1-0.9c12.4,1.1,23.9,2.1,35,3 c11.1,0.9,21.6,1.8,31.7,2.6c21.3,1.7,41.1,3.3,60.9,4.9c1.7,0.3,3.4,0.5,5.1,0.8c-1.6,0.2-3.1,0.3-4.7,0.5 c-12.6,0.3-25.3,0.6-38.6,0.9c-12.1,0.3-24.7,0.5-38.3,0.8l5.3-0.2c-12.9,0.3-16.9,0.4-17.4,0.4c-0.3,0,1,0,2.3-0.1 c1.3,0,2.4-0.1,1.6-0.1c-0.8,0-3.5,0-10.2,0.2c-1.3,0.1-5.1,0.2-10.4,0.3c-4.8,0.1-11.1,0.3-17.8,0.5c13.4,5.5,29.1,11.9,39.5,16.2 l-16.8-6.9c4,1.7,5.5,2.4,16.2,6.8c9.3,3.7,22.9,9.2,38.2,15.5c16.6,6.8,35.1,14.4,52.8,21.6c1.2,0.6,2.3,1.3,3.4,1.9 c-1.3-0.2-2.5-0.4-3.7-0.6c-5.2-1.5-10.1-3-14.8-4.4c-3.5-1.1-23.3-7.1-40.3-12.2c-2.6-0.8-5.1-1.5-7.2-2.1l2.8,0.8 c-12.6-3.8-18.3-5.5-21.1-6.3c-2.5-0.7-5.1-1.4-7.6-2.1l0,0l0,0c-7-2.1-13.2-3.9-18.8-5.6c-5.6-1.6-10.7-3.1-15.7-4.5 c12.3,3.6,23.2,6.8,31.4,9.3l-0.8-0.2l5.4,1.6c7.1,2.1,11.4,3.3,11.4,3.3c0,0,0,0,0,0c4.8,1.4,6.3,1.9,6.2,1.9 c-0.1,0-1.7-0.5-3.3-0.9c-1.6-0.5-3.3-0.9-3.4-0.9c0,0,0,0,0,0c-12.8-3.8-39.2-11.5-42.1-12.5c-2.6-0.8-4.8-1.4-7-2.1 c1.9,1.2,3.8,2.5,6.2,4.1l13.8,9l-2.2-1.4l2.8,1.9c0.8,0.5,1.7,1.1,2.5,1.6c7.3,4.8,9.5,6.1,9.4,6.1c0,0-0.1,0-0.2-0.1 c20.2,13.1,43.9,28.4,58.9,38.1c-5-3.2-6.9-4.4-6.9-4.4c-0.1,0,11.4,7.5,11.3,7.6c-2.1-1.4-20.3-13.2-47.8-31.2c2,1.3,3.5,2.3,4,2.7 c6.9,4.5,13.3,8.7,19.6,12.9c0.1,0.1,0.3,0.2,0.4,0.3c0.2,0.1,0.1,0.1,0.3,0.2c11.3,7.3,22.8,14.8,37.7,24.5c1,0.7,1,0.7,2.5,1.6 c0.4,0.3,0.9,0.6,1.3,0.9c4.5,3,9.2,6,14.5,9.5c0.3,0.3,0.8,0.6,1.2,0.9c-0.5-0.3-1-0.7-1.4-1c-1.4-0.9-2.5-1.6-3.2-2.1 c0.9,0.6,1.9,1.2,3,1.9C469.7,280.5,471.3,281.7,473.1,283c-1-0.8-1.4-1.1-1.4-1.1C471.7,281.9,472.4,282.4,473.1,283z M351.2,199.2 c1.2,0.4,4,1.2,12.5,3.7l3.4,0.9l-1.1-0.3L351.2,199.2z M180.2,65.3l-6.5-14l-0.4-1l1.4,3.2C178.4,61.6,179.6,64.2,180.2,65.3z M307.3,395.6l2.7,14.1c0,0,0,0.1,0,0.1c0,0-0.4-2.5-0.8-4.8C308.7,402.4,308,399.1,307.3,395.6z M339.7,269.3 c0.2,0.4,0.3,0.8,0.5,1.2l0,0.1L339.7,269.3z M402.8,414.4l-11.6-26.8l2.5,5.8L402.8,414.4z M168.9,40.4l-2.2-4.7l1.5,3.3l2,4.3 L168.9,40.4C168.9,40.5,168.9,40.5,168.9,40.4C168.9,40.5,168.9,40.4,168.9,40.4z" fill="#fff3ef"/></g></svg>